PathFileType	4	(X/Y/Z)	TVC_12_BWA2_walk_RCNL2025.trc
DataRate	CameraRate	NumFrames	NumMarkers	Units	OrigDataRate	OrigDataStartFrame	OrigNumFrames
100	100	6	27	mm	100	1	440
Frame#	Time	R_Shoulder			L_Shoulder			C7			J_Notch			R_Elbow			L_Elbow			R_Wrist			L_Wrist			R_Asis			L_Asis			R_Psis			L_Psis			Sacral			Thoracic			Sternum			R_Thigh_Lateral			R_Knee_Lateral			R_Shank_Lateral			R_Ankle_Lateral			R_Heel			R_Toe			L_Thigh_Lateral			L_Knee_Lateral			L_Shank_Lateral			L_Ankle_Lateral			L_Heel			L_Toe		
		X1	Y1	Z1	X2	Y2	Z2	X3	Y3	Z3	X4	Y4	Z4	X5	Y5	Z5	X6	Y6	Z6	X7	Y7	Z7	X8	Y8	Z8	X9	Y9	Z9	X10	Y10	Z10	X11	Y11	Z11	X12	Y12	Z12	X13	Y13	Z13	X14	Y14	Z14	X15	Y15	Z15	X16	Y16	Z16	X17	Y17	Z17	X18	Y18	Z18	X19	Y19	Z19	X20	Y20	Z20	X21	Y21	Z21	X22	Y22	Z22	X23	Y23	Z23	X24	Y24	Z24	X25	Y25	Z25	X26	Y26	Z26	X27	Y27	Z27
1	0.00000000	-827.145325	1346.020630	0.973052	-847.774170	1382.252808	-417.004486	-940.570190	1430.532227	-195.085785	-785.645264	1324.227295	-211.193222	-948.336792	1027.469238	50.934349	-1020.839050	1084.681519	-489.067505	-908.043945	785.428284	-2.090020	-1014.809235	845.328308	-436.284882	-868.248474	922.072388	-70.714523	-850.333679	949.000244	-414.131592	-1051.995605	968.190186	-173.807663	-1055.247437	970.079834	-281.822662	-1053.621521	969.135010	-227.815163	-1033.693237	1180.672729	-219.420319	-704.445312	1131.535400	-235.605255	-890.228088	610.262878	-57.449368	-861.215820	485.008148	-115.282585	-899.813232	264.776947	-92.707443	-894.895752	62.717365	-168.119431	-925.663635	60.596619	-232.590744	-756.087219	51.202553	-168.429947	-882.966736	639.979675	-479.467621	-918.168518	476.660583	-416.436859	-1068.570190	343.461609	-443.087128	-1203.337769	184.674026	-357.498352	-1237.964111	203.745529	-299.230438	-1130.405762	60.647705	-335.970062
2	0.01000000	-820.176025	1345.766479	1.787970	-842.278076	1382.568481	-415.954132	-934.210510	1430.898071	-193.681839	-779.709412	1324.100830	-210.452606	-941.156982	1027.337158	52.579922	-1014.921265	1084.829712	-487.459747	-900.375305	785.356689	-0.287821	-1006.577423	845.567535	-434.479660	-863.452148	921.882996	-69.036392	-844.054810	949.195129	-412.972870	-1046.828369	968.779480	-171.966629	-1050.198242	970.528076	-280.089417	-1048.513306	969.653778	-226.028023	-1028.028809	1181.211060	-217.723907	-699.150879	1131.214233	-235.392563	-885.915771	610.479675	-56.540123	-858.413940	484.788574	-114.745277	-898.799011	264.938324	-92.335846	-895.070435	63.035175	-167.971786	-926.182495	61.324451	-231.906708	-756.099121	51.220005	-168.389572	-873.643799	641.077637	-479.233490	-902.820251	477.672028	-415.930328	-1053.583496	344.831024	-442.486115	-1188.678711	185.746124	-357.258331	-1223.648071	204.482132	-298.987701	-1114.491821	63.760910	-336.392029
3	0.02000000	-813.312805	1345.546997	2.559889	-836.813721	1382.838013	-414.966400	-927.905945	1431.248047	-192.363525	-773.817383	1323.977661	-209.748764	-934.084045	1027.233887	54.160580	-1009.131897	1084.948364	-485.901123	-892.827271	785.311646	1.456632	-998.648041	845.790161	-432.747604	-858.607788	921.730225	-67.452087	-837.746765	949.399231	-411.833862	-1041.664307	969.339600	-170.217468	-1045.148071	970.951172	-278.434692	-1043.406189	970.145386	-224.326080	-1022.393066	1181.724365	-216.101166	-693.868408	1130.905518	-235.168411	-881.664551	610.658813	-55.664330	-855.665344	484.574799	-114.229042	-897.732422	265.075012	-91.993546	-895.087097	63.192802	-167.945724	-926.601196	61.956364	-231.336151	-756.063293	51.184914	-168.394714	-864.600708	642.108276	-478.990875	-887.782898	478.788605	-415.348053	-1038.526733	345.905548	-441.829742	-1173.488770	186.214478	-356.923523	-1208.824829	204.480820	-298.716949	-1097.574341	66.450020	-336.690460
4	0.03000000	-806.555542	1345.362061	3.288869	-831.380859	1383.061035	-414.041351	-921.656311	1431.582275	-191.130814	-767.969116	1323.857666	-209.081711	-927.117981	1027.159546	55.676315	-1003.470764	1085.037720	-484.391479	-885.399658	785.293152	3.143294	-991.021027	845.996155	-431.088730	-853.715393	921.614014	-65.961571	-831.409973	949.612549	-410.714600	-1036.503662	969.870483	-168.560181	-1040.097168	971.349060	-276.858429	-1038.300415	970.609772	-222.709305	-1016.786072	1182.212646	-214.552124	-688.597778	1130.609253	-234.932785	-877.474365	610.801025	-54.822060	-852.970520	484.366852	-113.734039	-896.614319	265.187134	-91.680878	-894.948303	63.192944	-168.039215	-926.919495	62.492645	-230.879272	-755.980591	51.098194	-168.444504	-855.825623	643.072021	-478.738586	-873.057556	480.009552	-414.690155	-1023.400391	346.685089	-441.118408	-1157.768433	186.080124	-356.493744	-1193.494995	203.743393	-298.416840	-1079.660400	68.709915	-336.868835
5	0.04000000	-799.903992	1345.211670	3.975029	-825.979126	1383.237671	-413.179016	-915.461548	1431.900635	-189.983673	-762.164490	1323.740723	-208.451370	-920.258789	1027.113770	57.127159	-997.937317	1085.098267	-482.930481	-878.092133	785.300934	4.772139	-983.695923	846.185089	-429.503082	-848.774780	921.534119	-64.564713	-825.046143	949.835144	-409.614929	-1031.345825	970.372192	-166.994659	-1035.045410	971.721863	-275.360382	-1033.195618	971.047028	-221.177521	-1011.207458	1182.675781	-213.076920	-683.339050	1130.325195	-234.685608	-873.345581	610.908325	-54.013618	-850.330750	484.164856	-113.260658	-895.447144	265.275330	-91.398598	-894.662842	63.044434	-168.245438	-927.138000	62.934311	-230.535477	-755.853943	50.962921	-168.536224	-847.290283	643.968689	-478.471649	-858.647217	481.332581	-413.957001	-1008.205200	347.169189	-440.353149	-1141.518921	185.345993	-355.968872	-1177.659790	202.275085	-298.083710	-1060.768677	70.528656	-336.934753
6	0.05000000	-793.357544	1345.095337	4.618517	-820.607727	1383.367676	-412.379486	-909.321106	1432.203125	-188.921982	-756.403076	1323.626709	-207.857803	-913.506592	1027.096313	58.513153	-992.530273	1085.130737	-481.517670	-870.904327	785.334442	6.343311	-976.671753	846.356415	-427.990585	-843.785706	921.489929	-63.261101	-818.659424	950.067139	-408.534424	-1026.190430	970.844849	-165.520630	-1029.992676	972.069702	-273.940094	-1028.091553	971.457275	-219.730362	-1005.656738	1183.113647	-211.675827	-678.091980	1130.053223	-234.426834	-869.279846	610.984253	-53.239895	-847.748718	483.969177	-112.809647	-894.237061	265.341156	-91.147903	-894.249634	62.766857	-168.549377	-927.259155	63.283417	-230.302460	-755.689819	50.785919	-168.663681	-838.948425	644.796387	-478.178650	-844.557617	482.753082	-413.149323	-992.942444	347.357330	-439.536041	-1124.741943	184.018021	-355.349091	-1161.321899	200.086624	-297.711121	-1040.936646	71.888641	-336.898682
